<svg xmlns="http://www.w3.org/2000/svg" viewBox="0 0 128 128" fill="none">
  <rect width="128" height="128" rx="28" fill="#7A1FA2"/>
  <path d="M0 18C26 6 54 4 82 10c16 4 31 11 46 22v12C96 24 63 17 32 23 20 25 9 29 0 35V18Z" fill="white" fill-opacity=".08"/>
  <path d="M16 102c18-14 40-21 64-20 14 0 29 3 48 11v13c-27-11-52-15-74-12-15 2-27 6-38 14V102Z" fill="white" fill-opacity=".08"/>
  <text x="15" y="86" font-family="Arial Black, Arial, sans-serif" font-size="52" font-weight="900" fill="white" letter-spacing="-2">go</text>
  <clipPath id="sevenClip">
    <text x="70" y="90" font-family="Arial Black, Arial, sans-serif" font-size="64" font-weight="900">7</text>
  </clipPath>
  <text x="70" y="90" font-family="Arial Black, Arial, sans-serif" font-size="64" font-weight="900" fill="white" fill-opacity=".18">7</text>
  <g clip-path="url(#sevenClip)" fill="white">
    <rect x="70" y="18" width="42" height="4"/>
    <rect x="70" y="26" width="42" height="4"/>
    <rect x="70" y="34" width="42" height="4"/>
    <rect x="70" y="42" width="42" height="4"/>
    <rect x="70" y="50" width="42" height="4"/>
    <rect x="70" y="58" width="42" height="4"/>
    <rect x="70" y="66" width="42" height="4"/>
    <rect x="70" y="74" width="42" height="4"/>
    <rect x="70" y="82" width="42" height="4"/>
  </g>
</svg>
